<svg xmlns="http://www.w3.org/2000/svg" version="1.1" xmlns:xlink="http://www.w3.org/1999/xlink" xmlns:svgjs="http://svgjs.dev/svgjs" width="128" height="128" viewBox="0 0 128 128"><g transform="matrix(0.8046875,0,0,0.8046875,12.760752631578946,31.95148407224815)"><svg viewBox="0 0 95 60" data-background-color="#ffffff" preserveAspectRatio="xMidYMid meet" height="80" width="128" xmlns="http://www.w3.org/2000/svg" xmlns:xlink="http://www.w3.org/1999/xlink"><g id="tight-bounds" transform="matrix(1,0,0,1,-0.24049999999999727,-0.1295385527749744)"><svg viewBox="0 0 95.481 60.259077105549956" height="60.259077105549956" width="95.481"><g><svg viewBox="0 0 95.481 60.259077105549956" height="60.259077105549956" width="95.481"><g><svg viewBox="0 0 95.481 60.259077105549956" height="60.259077105549956" width="95.481"><g id="textblocktransform"><svg viewBox="0 0 95.481 60.259077105549956" height="60.259077105549956" width="95.481" id="textblock"><g><svg viewBox="0 0 95.481 60.259077105549956" height="60.259077105549956" width="95.481"><g><svg viewBox="0 0 95.481 60.259077105549956" height="60.259077105549956" width="95.481"><g><svg xmlns="http://www.w3.org/2000/svg" xmlns:xlink="http://www.w3.org/1999/xlink" version="1.1" x="0" y="0" viewBox="4.647155172413797 26.65 90.07928947355325 56.85" enable-background="new 0 0 100 100" xml:space="preserve" height="60.259077105549956" width="95.481" class="icon-icon-0" data-fill-palette-color="accent" id="icon-0"><g fill="#d2d6dc" data-fill-palette-color="accent"><line fill="none" x1="59.399" y1="58.779" x2="84.875" y2="81"></line></g><g fill="#d2d6dc" data-fill-palette-color="accent"><path d="M93.89 46.16C79.34 33.22 64.22 26.65 48.95 26.65c-26.03 0-42.97 18.92-43.68 19.73-0.85 0.97-0.83 2.42 0.06 3.36 13.88 14.779 28.7 22.27 44.05 22.27 6.42 0 12.34-1.3 17.64-3.27L83.23 82.88c0.479 0.42 1.06 0.62 1.64 0.62 0.7 0 1.39-0.29 1.89-0.86 0.91-1.04 0.8-2.62-0.24-3.52L72.11 66.56C85.39 60.13 93.66 50.23 94.16 49.62 95.01 48.58 94.89 47.05 93.89 46.16zM67.94 62.92l-6.08-5.3c1.59-2.41 2.51-5.3 2.51-8.39 0-8.43-6.86-15.28-15.28-15.28-8.43 0-15.29 6.85-15.29 15.28 0 8.42 6.86 15.28 15.29 15.28 3.53 0 6.79-1.2 9.38-3.229l4.16 3.63c-4.1 1.3-8.54 2.1-13.25 2.1-13.32 0-26.35-6.38-38.75-18.97 4.62-4.44 18.85-16.39 38.32-16.39 13.35 0 26.7 5.58 39.7 16.59C85.52 51.5 78.1 58.45 67.94 62.92zM59.37 49.23c0 5.67-4.62 10.28-10.28 10.28-5.67 0-10.29-4.609-10.29-10.28 0-5.67 4.62-10.28 10.29-10.28C54.75 38.95 59.37 43.56 59.37 49.23z" fill="#d2d6dc" data-fill-palette-color="accent"></path></g><g fill="#d2d6dc" data-fill-palette-color="accent"><path d="M49.086 54.521c-2.918 0-5.293-2.374-5.293-5.293 0-2.918 2.375-5.293 5.293-5.293 2.919 0 5.293 2.375 5.293 5.293C54.379 52.146 52.005 54.521 49.086 54.521z" fill="#d2d6dc" data-fill-palette-color="accent"></path></g></svg></g></svg></g></svg></g></svg></g></svg></g><g></g></svg></g><defs></defs></svg><rect width="95.481" height="60.259077105549956" fill="none" stroke="none" visibility="hidden"></rect></g></svg></g></svg>